<?xml version="1.0" standalone="no"?>
<!DOCTYPE svg PUBLIC "-//W3C//DTD SVG 20010904//EN"
 "http://www.w3.org/TR/2001/REC-SVG-20010904/DTD/svg10.dtd">
<svg version="1.0" xmlns="http://www.w3.org/2000/svg"
 width="824.000000pt" height="824.000000pt" viewBox="0 0 824.000000 824.000000"
 preserveAspectRatio="xMidYMid meet">
<metadata>
Created by potrace 1.14, written by Peter Selinger 2001-2017
</metadata>
<g transform="translate(0.000000,824.000000) scale(0.100000,-0.100000)"
fill="#000000" stroke="none">
<path d="M3364 8137 c-176 -350 -250 -492 -256 -495 -5 -2 -8 -9 -8 -15 0 -11
-60 -137 -70 -147 -3 -3 -61 -116 -130 -252 -69 -136 -167 -330 -218 -430 -52
-101 -144 -282 -205 -403 -61 -121 -115 -221 -119 -223 -5 -2 -8 -8 -8 -14 0
-11 -111 -239 -120 -248 -3 -3 -52 -97 -109 -210 -96 -191 -204 -403 -486
-955 -62 -121 -176 -345 -254 -497 l-141 -278 1375 0 1376 0 -7 -22 c-32 -101
-89 -284 -103 -333 -10 -33 -20 -67 -24 -75 -3 -8 -18 -55 -33 -105 -14 -49
-34 -115 -44 -145 -10 -30 -28 -89 -40 -130 -29 -98 -29 -99 -31 -108 -1 -4
-6 -18 -11 -32 -9 -22 -106 -328 -112 -355 -2 -5 -6 -17 -9 -25 -3 -8 -20 -62
-37 -120 -63 -208 -121 -395 -131 -418 -5 -13 -9 -32 -9 -42 0 -11 -4 -20 -8
-20 -4 0 -8 -8 -9 -17 -1 -10 -14 -56 -29 -103 -15 -47 -29 -90 -30 -97 -1 -7
-21 -70 -43 -141 -23 -70 -43 -137 -45 -148 -2 -11 -11 -36 -18 -55 -17 -38
-43 -140 -40 -151 1 -5 -2 -8 -8 -8 -5 0 -10 -7 -10 -15 0 -9 -8 -41 -19 -73
-10 -31 -34 -109 -54 -172 -19 -63 -52 -169 -73 -235 -21 -66 -38 -122 -39
-125 -4 -19 -38 -131 -48 -155 -6 -16 -12 -34 -14 -40 -5 -25 -15 -58 -49
-165 -20 -63 -49 -155 -64 -205 -15 -50 -31 -99 -35 -110 -10 -25 34 23 117
130 34 44 65 82 68 85 3 3 19 23 36 45 16 22 34 45 39 51 6 6 21 26 35 44 14
18 30 38 36 44 6 6 27 33 47 59 20 26 42 54 49 61 7 8 22 26 33 42 11 15 27
35 35 44 8 8 22 25 30 37 8 11 71 91 140 177 69 87 140 176 158 199 18 23 41
51 50 62 10 11 39 48 65 82 26 34 53 68 60 75 7 7 30 37 52 66 21 28 43 52 47
52 4 0 8 5 8 11 0 6 9 21 20 33 10 11 44 53 74 91 31 39 65 80 76 92 11 12 20
27 20 32 0 5 3 11 8 13 4 2 32 34 62 73 30 38 62 79 72 90 16 19 120 149 136
170 26 34 88 111 92 115 3 3 17 21 30 40 14 19 32 42 40 51 34 36 60 70 60 79
0 6 4 10 8 10 5 0 22 19 39 43 17 23 47 61 67 82 19 22 36 43 36 46 0 3 9 17
21 30 11 13 33 39 47 58 137 172 166 209 181 226 9 11 32 40 50 65 19 25 42
53 50 62 9 9 26 30 38 45 44 56 204 258 217 274 8 9 81 101 162 205 82 104
156 196 164 206 8 9 20 23 25 30 56 74 171 216 183 226 9 6 12 12 6 12 -5 0
-4 4 1 8 6 4 39 43 74 87 35 44 77 98 95 119 17 22 45 58 63 80 18 23 44 55
57 71 14 17 34 41 43 53 10 13 27 34 38 47 11 13 27 33 35 45 8 12 23 32 34
43 10 12 57 72 105 132 93 120 111 141 126 159 6 6 26 31 44 56 19 25 39 50
46 55 6 6 22 26 35 45 14 19 34 46 46 60 12 14 45 54 73 90 29 36 57 72 64 80
7 8 28 35 47 60 19 25 37 47 40 50 3 3 22 26 43 53 l38 47 -1290 0 c-710 0
-1291 2 -1291 5 0 5 45 90 123 230 27 50 62 114 78 143 16 28 43 78 61 110 17
31 43 80 57 107 14 28 28 52 31 55 3 3 14 23 26 45 11 22 36 67 54 100 46 83
64 115 170 310 51 94 104 190 118 215 14 25 39 72 57 105 18 33 61 112 96 175
35 63 71 129 79 145 8 17 17 32 20 35 3 3 13 21 24 40 10 19 32 60 48 90 16
30 44 82 62 115 18 33 52 96 76 140 23 44 46 85 50 90 4 6 24 42 45 80 21 39
50 93 65 120 15 28 38 68 50 90 12 22 31 58 44 80 12 22 42 78 66 125 25 47
48 87 51 90 7 6 29 46 29 54 0 3 -127 5 -282 6 -156 1 -737 3 -1293 5 l-1010
4 -51 -102z"/>
</g>
</svg>
